<svg width="35" height="35" viewBox="0 0 35 35" fill="none" xmlns="http://www.w3.org/2000/svg">
<path d="M27.5691 10.7936H23.3108V9.37413C23.3108 7.86829 22.7126 6.42412 21.6478 5.35933C20.583 4.29454 19.1389 3.69635 17.633 3.69635C16.1272 3.69635 14.683 4.29454 13.6182 5.35933C12.5534 6.42412 11.9552 7.86829 11.9552 9.37413V10.7936H7.69691C7.32045 10.7936 6.95941 10.9431 6.69321 11.2093C6.42701 11.4755 6.27747 11.8366 6.27747 12.213V27.8269C6.27747 28.9563 6.72611 30.0394 7.5247 30.838C8.3233 31.6366 9.40642 32.0852 10.5358 32.0852H24.7302C25.8596 32.0852 26.9427 31.6366 27.7413 30.838C28.5399 30.0394 28.9886 28.9563 28.9886 27.8269V12.213C28.9886 11.8366 28.839 11.4755 28.5728 11.2093C28.3066 10.9431 27.9456 10.7936 27.5691 10.7936ZM14.7941 9.37413C14.7941 8.62121 15.0932 7.89913 15.6256 7.36673C16.158 6.83434 16.8801 6.53524 17.633 6.53524C18.3859 6.53524 19.108 6.83434 19.6404 7.36673C20.1728 7.89913 20.4719 8.62121 20.4719 9.37413V10.7936H14.7941V9.37413ZM26.1497 27.8269C26.1497 28.2034 26.0001 28.5644 25.7339 28.8306C25.4677 29.0968 25.1067 29.2463 24.7302 29.2463H10.5358C10.1593 29.2463 9.7983 29.0968 9.5321 28.8306C9.2659 28.5644 9.11635 28.2034 9.11635 27.8269V13.6325H11.9552V15.0519C11.9552 15.4284 12.1048 15.7894 12.371 16.0556C12.6372 16.3218 12.9982 16.4713 13.3747 16.4713C13.7511 16.4713 14.1122 16.3218 14.3784 16.0556C14.6446 15.7894 14.7941 15.4284 14.7941 15.0519V13.6325H20.4719V15.0519C20.4719 15.4284 20.6215 15.7894 20.8877 16.0556C21.1539 16.3218 21.5149 16.4713 21.8914 16.4713C22.2678 16.4713 22.6289 16.3218 22.8951 16.0556C23.1612 15.7894 23.3108 15.4284 23.3108 15.0519V13.6325H26.1497V27.8269Z" fill="white"/>
</svg>
