<svg width="39" height="39" viewBox="0 0 39 39" fill="none" xmlns="http://www.w3.org/2000/svg">
<path d="M0 19.175C0 8.58494 8.58494 0 19.175 0H19.825C30.4151 0 39 8.58494 39 19.175C39 29.7651 30.4151 38.35 19.825 38.35H19.175C8.58494 38.35 0 29.7651 0 19.175Z" fill="#F7AB53"/>
<g clip-path="url(#clip0_4_516)">
<circle cx="19.825" cy="19.5" r="13.5" fill="#F7AB53"/>
<path d="M19.735 4.79999C27.555 4.79999 33.905 11.16 33.905 18.97C33.905 26.78 27.545 33.14 19.735 33.14C11.925 33.14 5.565 26.79 5.565 18.97C5.565 11.15 11.925 4.79999 19.735 4.79999ZM20.585 22.09C20.555 22.82 20.575 23.54 20.575 24.31C21.115 24.31 21.635 24.34 22.145 24.3C22.965 24.24 23.585 23.56 23.625 22.74C23.635 22.45 23.635 22.17 23.635 21.88C23.635 21.46 23.635 21.04 23.635 20.6C23.075 20.6 22.545 20.56 22.035 20.61C21.255 20.68 20.625 21.32 20.585 22.09ZM22.185 15.33C21.385 15.34 20.695 15.86 20.615 16.65C20.535 17.4 20.595 18.16 20.595 18.92C21.125 18.92 21.655 18.95 22.175 18.91C22.915 18.86 23.575 18.22 23.605 17.49C23.645 16.78 23.615 16.07 23.615 15.32C23.125 15.33 22.655 15.32 22.185 15.33ZM21.195 12.27C21.015 11.4 20.245 11.02 19.755 10.41C19.365 10.79 18.995 11.13 18.665 11.49C18.145 12.05 18.105 12.89 18.555 13.51C18.925 14.02 19.325 14.52 19.745 15.06C20.175 14.49 20.605 13.96 20.995 13.41C21.225 13.08 21.275 12.68 21.195 12.27ZM17.535 25.97C16.455 25.96 15.575 25.54 14.885 24.7C14.845 24.65 14.795 24.6 14.735 24.54C13.605 25.54 12.055 26.77 10.845 27.82V27.83C13.115 30.11 16.265 31.53 19.725 31.53C26.645 31.53 32.275 25.9 32.275 18.98C32.275 16.1 31.295 13.44 29.665 11.32C28.475 12.35 26.455 14.14 25.545 14.93C25.345 15.11 25.275 15.28 25.275 15.54C25.285 17.91 25.285 20.27 25.275 22.64C25.265 24.25 24.235 25.56 22.675 25.89C22.135 26 21.555 25.95 20.995 25.98C20.855 25.99 20.705 25.98 20.545 25.98V28.73H18.885V25.98C18.435 25.97 17.985 25.97 17.535 25.97ZM17.415 20.61C16.915 20.58 16.405 20.6 15.855 20.6C15.855 21.33 15.845 22.03 15.855 22.73C15.875 23.5 16.395 24.15 17.165 24.26C17.725 24.33 18.315 24.27 18.905 24.27C18.905 23.53 18.945 22.78 18.895 22.04C18.835 21.26 18.185 20.65 17.415 20.61ZM17.445 15.34C16.935 15.31 16.415 15.33 15.855 15.33C15.855 16.03 15.845 16.7 15.855 17.37C15.875 18.1 16.375 18.76 17.105 18.86C17.685 18.94 18.295 18.88 18.905 18.88C18.905 18.19 18.935 17.47 18.895 16.77C18.855 16.01 18.215 15.39 17.445 15.34ZM16.735 13.51C16.385 12.2 16.715 11.09 17.665 10.14C18.145 9.65999 18.635 9.16999 19.115 8.68999C19.325 8.47999 19.525 8.26999 19.755 8.02999C20.595 8.89999 21.445 9.69999 22.215 10.58C22.795 11.26 22.975 12.1 22.855 13C22.825 13.22 22.775 13.43 22.735 13.66C23.245 13.66 23.735 13.67 24.215 13.65C24.375 13.64 24.555 13.58 24.675 13.48C25.385 12.87 26.075 12.25 26.775 11.63C27.145 11.3 27.945 10.63 28.595 10.09C26.325 7.82999 23.195 6.41999 19.745 6.41999C12.825 6.42999 7.195 12.06 7.195 18.98C7.195 21.84 8.155 24.48 9.775 26.59C10.765 25.75 13.015 23.86 14.045 22.93C14.135 22.85 14.195 22.68 14.195 22.55C14.205 19.71 14.195 16.88 14.195 14.04C14.195 13.92 14.195 13.81 14.195 13.67H16.735C16.745 13.63 16.755 13.61 16.755 13.6C16.745 13.56 16.735 13.54 16.735 13.51Z" fill="white"/>
</g>
<defs>
<clipPath id="clip0_4_516">
<rect width="28.35" height="28.35" fill="white" transform="translate(5.32501 5)"/>
</clipPath>
</defs>
</svg>
